<?xml version="1.0" encoding="UTF-8"?>
<svg id="Layer_1" data-name="Layer 1" xmlns="http://www.w3.org/2000/svg" xmlns:xlink="http://www.w3.org/1999/xlink" viewBox="0 0 2420 930.67">
  <defs>
    <style>
      .cls-1 {
        fill: url(#linear-gradient);
      }

      .cls-2 {
        fill: #fff;
      }
    </style>
    <linearGradient id="linear-gradient" x1="701.68" y1="366.03" x2="451.23" y2="722.44" gradientUnits="userSpaceOnUse">
      <stop offset="0" stop-color="#b2e300"/>
      <stop offset="1" stop-color="#008b00"/>
    </linearGradient>
  </defs>
  <path class="cls-2" d="m250,392.58h51.22v48.3c14.56-37.24,48.89-57.61,85.56-57.61,8.73,0,15.12,1.17,19.2,1.75v58.2c-8.15-1.17-17.46-1.75-25.03-1.75-45.97,0-71,30.26-78.57,57.03v173.44h-52.38v-279.35h0Z"/>
  <path class="cls-1" d="m585.22,383.26c-84.96,0-147.24,63.43-147.24,148.4s62.28,148.99,147.24,148.99,147.24-64.02,147.24-148.99-62.28-148.4-147.24-148.4Zm0,247.92c-47.72,0-91.96-34.93-91.96-99.52s44.24-98.94,91.96-98.94,91.96,34.33,91.96,98.94-44.24,99.52-91.96,99.52Z"/>
  <path class="cls-2" d="m1216.69,487.45v184.5h-52.38v-171.11c0-42.49-24.45-67.51-59.36-67.51-22.05,0-40.75,7.69-56.37,21.28-8.66,7.53-13.2,18.66-12.92,30.13.02.89.03,1.79.03,2.71v184.5h-51.8v-171.11c0-42.49-23.28-67.51-58.2-67.51-.93,0-1.85.01-2.76.04-38.21,1.18-68.24,33.25-68.24,71.48v167.09h-52.38v-279.35h51.22v26.77c19.2-19.79,47.14-36.08,84.39-36.08,32.01,0,61.11,12.81,78.57,38.41,15.71-15.12,46.55-38.41,96.6-38.41,53.55,0,103.6,36.08,103.6,104.18h0Z"/>
  <path class="cls-2" d="m1447.74,383.28c-43.65,0-71,17.46-91.37,38.41v-171.69h-52.38v421.94h52.38v-30.26c20.37,20.95,47.72,38.99,91.37,38.99,82.06,0,133.86-66.34,133.86-149.57s-51.8-147.82-133.86-147.82Zm-9.31,247.91c-.93,0-1.86-.01-2.78-.04-44.39-1.35-79.29-38.58-79.29-82.99v-32.36c0-44.29,34.71-81.53,78.98-82.99,1.02-.03,2.05-.05,3.08-.05,53.53,0,87.88,37.24,87.88,98.34s-34.33,100.1-87.88,100.1Z"/>
  <path class="cls-2" d="m1648.52,576.49v-183.91h52.38v170.52c0,42.49,30.26,67.51,65.19,67.51.93,0,1.85-.01,2.76-.04,38.19-1.13,68.24-33.15,68.24-71.35v-166.64h52.38v279.35h-51.22v-26.77c-19.2,19.79-47.14,35.51-84.39,35.51-53.55,0-105.35-36.08-105.35-104.18h0Z"/>
  <path class="cls-2" d="m2170,593.94c0,55.86-50.05,86.71-112.33,86.71-34.91,0-71.59-10.48-94.87-22.7l5.66-13.16,12.37-28.74c26.25,11.51,52.69,18.05,76.83,18.05,37.83,0,58.78-13.97,58.78-40.16,0-18.04-13.39-30.26-36.66-35.49l-47.72-10.48c-44.82-9.89-69.84-37.83-69.84-79.73,0-51.22,44.24-84.98,105.35-84.98,38.41,0,66.92,9.31,89.04,19.2l-18.37,42.7c-23.95-9.84-48.97-15.35-70.68-15.35-36.66,0-52.96,16.87-52.96,38.41,0,14.56,10.48,27.93,33.76,33.18l44.24,9.89c50.63,11.06,77.4,40.16,77.4,82.65Z"/>
</svg>